<?xml version="1.0" encoding="UTF-8"?>
<svg version="1.1" xmlns="http://www.w3.org/2000/svg" width="192" height="192">
<path d="M0 0 C1.65 0 3.3 0 5 0 C13.7890625 16.11328125 13.7890625 16.11328125 15.38378906 19.04541016 C16.4804817 21.05027032 17.58694967 23.04980814 18.70214844 25.04443359 C19.24129883 26.0133252 19.78044922 26.9822168 20.3359375 27.98046875 C21.06756104 29.28407349 21.06756104 29.28407349 21.81396484 30.61401367 C22.88501469 32.76868024 23.53525663 34.65008603 24 37 C25.1859375 36.66226563 26.371875 36.32453125 27.59375 35.9765625 C39.94901627 32.54162141 52.08667436 29.78247078 65 30 C64 33 64 33 62.33276367 33.94799805 C61.61838135 34.21652588 60.90399902 34.48505371 60.16796875 34.76171875 C59.37430908 35.07238281 58.58064941 35.38304687 57.76293945 35.703125 C56.91304443 36.02796875 56.06314941 36.3528125 55.1875 36.6875 C47.01203132 39.94631237 40.06609762 43.69690079 33 49 C34.32016765 52.51875154 35.87918614 55.65568624 37.8203125 58.87109375 C38.62275391 60.22750977 38.62275391 60.22750977 39.44140625 61.61132812 C40.56413972 63.49600948 41.69437047 65.37624467 42.83203125 67.25195312 C43.36441406 68.15751953 43.89679688 69.06308594 44.4453125 69.99609375 C44.93531738 70.81263428 45.42532227 71.6291748 45.93017578 72.47045898 C47.20770194 75.49109992 47.26250672 77.75097451 47 81 C44.7292204 83.2707796 39.79391628 82.46611679 36.75 82.5625 C35.89019531 82.62501953 35.03039062 82.68753906 34.14453125 82.75195312 C31.54361075 82.81807822 29.4935451 82.75579001 27 82 C24.66041528 79.63265929 23.37258801 77.00620086 22 74 C21.21689453 72.63875 21.21689453 72.63875 20.41796875 71.25 C20.01191406 70.5075 19.60585937 69.765 19.1875 69 C18.55908203 67.8553125 18.55908203 67.8553125 17.91796875 66.6875 C17.61503906 66.130625 17.31210938 65.57375 17 65 C16.21625 65.825 15.4325 66.65 14.625 67.5 C12 70 12 70 10 70 C9.72671875 70.57234375 9.4534375 71.1446875 9.171875 71.734375 C7.02420015 75.88654638 4.92559256 79.33643154 1 82 C-3.7408979 82.68393281 -8.24483875 82.4748566 -13 82 C-13 80.02 -13 78.04 -13 76 C-15.43929746 77.92576115 -17.80090595 79.80090595 -20 82 C-22.13891602 82.24291992 -22.13891602 82.24291992 -24.75390625 82.23046875 C-26.15866211 82.22756836 -26.15866211 82.22756836 -27.59179688 82.22460938 C-28.57212891 82.21236328 -29.55246094 82.20011719 -30.5625 82.1875 C-31.54669922 82.18685547 -32.53089844 82.18621094 -33.54492188 82.18554688 C-40.85982468 82.14017532 -40.85982468 82.14017532 -42 81 C-42.3125 78.67578125 -42.3125 78.67578125 -42 76 C-40.25 73.98046875 -40.25 73.98046875 -38 72.1875 C-37.2575 71.58292969 -36.515 70.97835937 -35.75 70.35546875 C-35.1725 69.90816406 -34.595 69.46085937 -34 69 C-34.66 68.01 -35.32 67.02 -36 66 C-35.65486214 62.47739681 -34.57629411 59.86435431 -32.8046875 56.83203125 C-32.34352539 56.03418213 -31.88236328 55.23633301 -31.40722656 54.41430664 C-30.64877441 53.12641235 -30.64877441 53.12641235 -29.875 51.8125 C-29.34874023 50.90556396 -28.82248047 49.99862793 -28.28027344 49.06420898 C-27.13522328 47.09134551 -25.98731366 45.12013957 -24.83691406 43.15039062 C-22.27449106 38.75571939 -19.73579477 34.34749871 -17.19604492 29.93969727 C-15.28243871 26.61879466 -13.36605735 23.2995064 -11.44921875 19.98046875 C-7.61205396 13.33210228 -3.79671584 6.67154541 0 0 Z M2 34 C0.66141476 36.28874173 -0.67101014 38.58069656 -2 40.875 C-2.3815625 41.52597656 -2.763125 42.17695312 -3.15625 42.84765625 C-5.27551156 46.20350201 -5.27551156 46.20350201 -6 50 C-1.00370856 48.50111257 3.38263833 46.38829052 8 44 C6.35 40.7 4.7 37.4 3 34 C2.67 34 2.34 34 2 34 Z " fill="#8DB9CF" transform="translate(94,49)"/>
<path d="M0 0 C1.65 0 3.3 0 5 0 C5.33733154 0.61931396 5.67466309 1.23862793 6.0222168 1.87670898 C7.57692795 4.73051497 9.13221069 7.58400907 10.6875 10.4375 C11.21794922 11.41138672 11.74839844 12.38527344 12.29492188 13.38867188 C13.08286133 14.8340332 13.08286133 14.8340332 13.88671875 16.30859375 C14.66668213 17.74501221 14.66668213 17.74501221 15.46240234 19.21044922 C16.45733771 21.01548756 17.47213084 22.80978147 18.51025391 24.59033203 C18.96706543 25.37649902 19.42387695 26.16266602 19.89453125 26.97265625 C20.3016333 27.657229 20.70873535 28.34180176 21.12817383 29.04711914 C22 31 22 31 22 35 C20.23141309 35.67260351 18.46003984 36.33788395 16.6875 37 C15.70136719 37.37125 14.71523437 37.7425 13.69921875 38.125 C11 39 11 39 8 39 C6.35 36.03 4.7 33.06 3 30 C-0.08402393 33.54891926 -1.7835583 36.80243718 -3.5625 41.125 C-8.15558185 49.98954747 -16.15779696 53.36029778 -24.75390625 57.765625 C-28.05491898 59.57974678 -30.99277571 61.73649785 -34 64 C-34.66 63.67 -35.32 63.34 -36 63 C-27.89333776 48.58493333 -19.69161795 34.22773704 -11.4140625 19.91015625 C-7.58519246 13.28716039 -3.78379524 6.64884147 0 0 Z " fill="#ADCFDE" transform="translate(94,49)"/>
<path d="M0 0 C2.61724095 2.36797991 4.32861729 4.89600354 6 8 C6 8.66 6 9.32 6 10 C6.75925781 9.71125 7.51851562 9.4225 8.30078125 9.125 C9.29464844 8.75375 10.28851563 8.3825 11.3125 8 C12.79169922 7.443125 12.79169922 7.443125 14.30078125 6.875 C17 6 17 6 20 6 C20.33 5.34 20.66 4.68 21 4 C21.495 5.98 21.495 5.98 22 8 C23.1859375 7.66226563 24.371875 7.32453125 25.59375 6.9765625 C37.94901627 3.54162141 50.08667436 0.78247078 63 1 C63 1.66 63 2.32 63 3 C62.43796875 3.06316406 61.8759375 3.12632813 61.296875 3.19140625 C33.63568362 7.22179456 7.11954217 22.24125296 -14 40 C-14.70253906 40.56847656 -15.40507813 41.13695312 -16.12890625 41.72265625 C-19.89397133 44.74903801 -19.89397133 44.74903801 -22 49 C-29.26 49 -36.52 49 -44 49 C-41.73106888 44.46213776 -39.90133466 43.05321843 -36 40 C-36.66 38.35 -37.32 36.7 -38 35 C-35.02351479 33.09993237 -32.04332231 31.20575497 -29.0625 29.3125 C-28.23169922 28.78205078 -27.40089844 28.25160156 -26.54492188 27.70507812 C-25.71669922 27.17978516 -24.88847656 26.65449219 -24.03515625 26.11328125 C-23.20145508 25.58420166 -22.36775391 25.05512207 -21.50878906 24.51000977 C-19.09301437 23.05598422 -16.63457301 21.8057148 -14.11328125 20.546875 C-9.54475891 18.04713647 -8.17245286 15.69961051 -6.125 10.9375 C-4.39685089 6.99515985 -2.78065158 3.33844696 0 0 Z M0 5 C-1.33858524 7.28874173 -2.67101014 9.58069656 -4 11.875 C-4.3815625 12.52597656 -4.763125 13.17695312 -5.15625 13.84765625 C-7.27551156 17.20350201 -7.27551156 17.20350201 -8 21 C-3.00370856 19.50111257 1.38263833 17.38829052 6 15 C4.35 11.7 2.7 8.4 1 5 C0.67 5 0.34 5 0 5 Z " fill="#93BDD2" transform="translate(96,78)"/>
<path d="M0 0 C-3.08341641 3.08341641 -7.208823 4.11707769 -11.23828125 5.61328125 C-14.52864872 6.87578805 -17.45032889 8.18937851 -20.359375 10.1953125 C-23 12 -23 12 -25 12 C-25 11.34 -25 10.68 -25 10 C-39.72148357 17.09958538 -53.52466221 24.67076623 -66.29296875 34.93359375 C-68.50465648 36.62188063 -70.46576377 37.89316174 -73 39 C-73 39.66 -73 40.32 -73 41 C-74.99284138 42.3440093 -76.99419671 43.67541292 -79 45 C-80.00546875 46.29550781 -80.00546875 46.29550781 -81.03125 47.6171875 C-85.43901746 51.15500086 -89.3404707 50.55137301 -94.8125 50.3125 C-95.79154297 50.28994141 -96.77058594 50.26738281 -97.77929688 50.24414062 C-100.18777455 50.18539727 -102.59309078 50.10332129 -105 50 C-105.33 48.68 -105.66 47.36 -106 46 C-98.74 46 -91.48 46 -84 46 C-83.67 44.68 -83.34 43.36 -83 42 C-66.65541427 23.23399416 -40.18499682 10.61258536 -17 3 C-16.02546875 2.66355469 -15.0509375 2.32710938 -14.046875 1.98046875 C-9.18211685 0.38558546 -5.11660234 -0.33369146 0 0 Z " fill="#1A3245" transform="translate(158,81)"/>
<path d="M0 0 C2.61724095 2.36797991 4.32861729 4.89600354 6 8 C6 8.66 6 9.32 6 10 C6.75925781 9.71125 7.51851562 9.4225 8.30078125 9.125 C9.29464844 8.75375 10.28851563 8.3825 11.3125 8 C12.79169922 7.443125 12.79169922 7.443125 14.30078125 6.875 C17 6 17 6 20 6 C20.33 5.34 20.66 4.68 21 4 C20.8671875 6.81640625 20.8671875 6.81640625 20 10 C17.3828125 11.71484375 17.3828125 11.71484375 14.125 12.9375 C12.52011719 13.56978516 12.52011719 13.56978516 10.8828125 14.21484375 C8 15 8 15 5 14 C3.61328125 12.15234375 3.61328125 12.15234375 2.3125 9.9375 C1.87550781 9.20402344 1.43851563 8.47054687 0.98828125 7.71484375 C0.49908203 6.86599609 0.49908203 6.86599609 0 6 C-0.59167969 7.10859375 -1.18335938 8.2171875 -1.79296875 9.359375 C-2.59057953 10.82322537 -3.38878829 12.28675003 -4.1875 13.75 C-4.57486328 14.47960937 -4.96222656 15.20921875 -5.36132812 15.9609375 C-9.70111269 23.85145489 -16.14916052 27.49244626 -23.625 32.1875 C-24.48351562 32.73341797 -25.34203125 33.27933594 -26.2265625 33.84179688 C-27.0515625 34.36193359 -27.8765625 34.88207031 -28.7265625 35.41796875 C-29.47502441 35.89000732 -30.22348633 36.3620459 -30.99462891 36.84838867 C-33 38 -33 38 -36 39 C-36.66 37.68 -37.32 36.36 -38 35 C-35.02351479 33.09993237 -32.04332231 31.20575497 -29.0625 29.3125 C-28.23169922 28.78205078 -27.40089844 28.25160156 -26.54492188 27.70507812 C-25.71669922 27.17978516 -24.88847656 26.65449219 -24.03515625 26.11328125 C-23.20145508 25.58420166 -22.36775391 25.05512207 -21.50878906 24.51000977 C-19.09301437 23.05598422 -16.63457301 21.8057148 -14.11328125 20.546875 C-9.54475891 18.04713647 -8.17245286 15.69961051 -6.125 10.9375 C-4.39685089 6.99515985 -2.78065158 3.33844696 0 0 Z " fill="#10212F" transform="translate(96,78)"/>
<path d="M0 0 C2.98957292 2.33115507 3.82117744 5.09283361 5.14453125 8.54858398 C6.63002991 12.15422499 8.0602041 15.35751639 11 18 C17.05196574 20.15819882 23.70095686 19.50163751 30 19 C29.67 20.32 29.34 21.64 29 23 C25.93372294 23.21665549 22.88272762 23.37459318 19.8125 23.5 C18.51602539 23.60054687 18.51602539 23.60054687 17.19335938 23.703125 C14.58180231 23.78317273 12.51081582 23.73687291 10 23 C7.65169422 20.63657108 6.36990787 18.01047591 5 15 C4.47792969 14.0925 3.95585938 13.185 3.41796875 12.25 C3.01191406 11.5075 2.60585937 10.765 2.1875 10 C1.76855469 9.236875 1.34960938 8.47375 0.91796875 7.6875 C0.61503906 7.130625 0.31210938 6.57375 0 6 C-0.78375 6.825 -1.5675 7.65 -2.375 8.5 C-5 11 -5 11 -7 11 C-7.40992188 11.85851562 -7.40992188 11.85851562 -7.828125 12.734375 C-9.97579985 16.88654638 -12.07440744 20.33643154 -16 23 C-20.7408979 23.68393281 -25.24483875 23.4748566 -30 23 C-30 21.68 -30 20.36 -30 19 C-29.16597656 19.04382813 -28.33195312 19.08765625 -27.47265625 19.1328125 C-20.46522376 19.14360895 -20.46522376 19.14360895 -14.4140625 15.98828125 C-12.15733767 13.40294561 -10.08172703 10.72737546 -8 8 C-6.50550564 6.43278695 -4.9862841 4.88858447 -3.4375 3.375 C-2.77621094 2.72273438 -2.11492187 2.07046875 -1.43359375 1.3984375 C-0.96050781 0.93695313 -0.48742187 0.47546875 0 0 Z " fill="#102535" transform="translate(111,108)"/>
<path d="M0 0 C0.99 0.33 1.98 0.66 3 1 C2.01 1.33 1.02 1.66 0 2 C0 2.66 0 3.32 0 4 C-1.99284138 5.3440093 -3.99419671 6.67541292 -6 8 C-6.6703125 8.86367187 -7.340625 9.72734375 -8.03125 10.6171875 C-12.43901746 14.15500086 -16.3404707 13.55137301 -21.8125 13.3125 C-22.79154297 13.28994141 -23.77058594 13.26738281 -24.77929688 13.24414062 C-27.18777455 13.18539727 -29.59309078 13.10332129 -32 13 C-32.33 11.68 -32.66 10.36 -33 9 C-25.74 9 -18.48 9 -11 9 C-11 8.34 -11 7.68 -11 7 C-9.05017465 5.59431196 -7.04049422 4.2704964 -5 3 C-3.6696875 2.1028125 -3.6696875 2.1028125 -2.3125 1.1875 C-1.549375 0.795625 -0.78625 0.40375 0 0 Z " fill="#0A1C2B" transform="translate(85,118)"/>
<path d="M0 0 C7.59 0.33 15.18 0.66 23 1 C22.67 2.32 22.34 3.64 22 5 C18.89632503 5.14515677 15.79351973 5.23400853 12.6875 5.3125 C11.36588867 5.3753418 11.36588867 5.3753418 10.01757812 5.43945312 C8.74624023 5.46362305 8.74624023 5.46362305 7.44921875 5.48828125 C6.66893311 5.51446533 5.88864746 5.54064941 5.0847168 5.56762695 C3 5 3 5 0 0 Z " fill="#0B1C2C" transform="translate(118,126)"/>
<path d="M0 0 C0.6875 1.8125 0.6875 1.8125 1 4 C-1.19829439 6.81587542 -3.72811155 7.94513973 -7 9.25 C-8.299375 9.78367187 -8.299375 9.78367187 -9.625 10.328125 C-12 11 -12 11 -15 10 C-17.04108797 6.99208089 -17.19878036 4.57804656 -17 1 C-15.5 2.375 -15.5 2.375 -14 4 C-14 4.66 -14 5.32 -14 6 C-13.24074219 5.71125 -12.48148437 5.4225 -11.69921875 5.125 C-10.70535156 4.75375 -9.71148437 4.3825 -8.6875 4 C-7.70136719 3.62875 -6.71523437 3.2575 -5.69921875 2.875 C-3 2 -3 2 0 2 C0 1.34 0 0.68 0 0 Z " fill="#122434" transform="translate(116,82)"/>
<path d="M0 0 C-2.67424298 2.67424298 -5.79372812 3.69922961 -9.25 5.0625 C-9.90613281 5.33126953 -10.56226563 5.60003906 -11.23828125 5.87695312 C-20.86147932 9.71284023 -20.86147932 9.71284023 -26 8 C-24.47151587 4.94303174 -21.98338406 4.75479371 -18.85546875 3.69140625 C-18.03691406 3.42199219 -17.21835938 3.15257813 -16.375 2.875 C-15.57964844 2.59785156 -14.78429687 2.32070312 -13.96484375 2.03515625 C-9.10664787 0.41575762 -5.1175676 -0.31556047 0 0 Z " fill="#16293C" transform="translate(158,81)"/>
<path d="M0 0 C0 0.66 0 1.32 0 2 C-0.68964844 2.12117188 -1.37929687 2.24234375 -2.08984375 2.3671875 C-8.09799013 3.43859906 -14.05175157 4.63482823 -20 6 C-20 5.34 -20 4.68 -20 4 C-23.3 4.66 -26.6 5.32 -30 6 C-26.87635063 2.87635063 -26.39691268 2.59309197 -22.32421875 2.05078125 C-21.41349609 1.92509766 -20.50277344 1.79941406 -19.56445312 1.66992188 C-18.14036133 1.49299805 -18.14036133 1.49299805 -16.6875 1.3125 C-15.74970703 1.18294922 -14.81191406 1.05339844 -13.84570312 0.91992188 C-9.2013374 0.30132771 -4.6963556 -0.16519844 0 0 Z " fill="#AFC5CE" transform="translate(159,79)"/>
<path d="M0 0 C-1.375 2 -1.375 2 -3 4 C-3.66 4 -4.32 4 -5 4 C-5 3.34 -5 2.68 -5 2 C-5.94101563 2.433125 -6.88203125 2.86625 -7.8515625 3.3125 C-9.10911419 3.87558284 -10.36694153 4.43805034 -11.625 5 C-12.24246094 5.28617187 -12.85992187 5.57234375 -13.49609375 5.8671875 C-17.50217971 7.63829919 -20.63200469 8.32255965 -25 8 C-21.98718835 5.56410973 -18.97455563 3.94381651 -15.4375 2.375 C-14.48746094 1.94960937 -13.53742188 1.52421875 -12.55859375 1.0859375 C-7.82190453 -0.92444357 -5.06983649 -0.86091563 0 0 Z " fill="#294356" transform="translate(138,89)"/>
<path d="M0 0 C2.75 0.8125 2.75 0.8125 5 2 C1.7895484 5.48563316 -0.60205203 7.36355424 -5 9 C-7.10862821 10.3148396 -9.17445483 11.67864525 -11.23046875 13.07421875 C-12.10638672 13.53248047 -12.10638672 13.53248047 -13 14 C-13.66 13.67 -14.32 13.34 -15 13 C-13.2519799 11.3936298 -11.50168356 9.78986703 -9.75 8.1875 C-9.25886719 7.73568359 -8.76773438 7.28386719 -8.26171875 6.81835938 C-2.48542444 1.54267724 -2.48542444 1.54267724 0 0 Z " fill="#193144" transform="translate(89,111)"/>
<path d="M0 0 C0 3 0 3 -2.1875 5.48046875 C-3.115625 6.37378906 -4.04375 7.26710938 -5 8.1875 C-5.928125 9.08855469 -6.85625 9.98960938 -7.8125 10.91796875 C-8.534375 11.60503906 -9.25625 12.29210937 -10 13 C-7.03 13.33 -4.06 13.66 -1 14 C-1 14.33 -1 14.66 -1 15 C-5.29 15 -9.58 15 -14 15 C-12.20953774 11.41907547 -10.90408119 9.65890215 -8.125 6.9375 C-7.44695312 6.26589844 -6.76890625 5.59429687 -6.0703125 4.90234375 C-4.1292063 3.11872353 -2.1380399 1.53881347 0 0 Z " fill="#83ABBF" transform="translate(95,112)"/>
<path d="M0 0 C3.42771135 3.9173844 8 9.52151811 8 15 C5.48075592 14.63481546 4.32238586 14.41691257 2.734375 12.36328125 C0.6698976 8.06228667 -0.48878089 4.88780895 0 0 Z " fill="#183142" transform="translate(113,111)"/>
<path d="M0 0 C4.29 0 8.58 0 13 0 C13 0.99 13 1.98 13 3 C8.71 3 4.42 3 0 3 C0 2.01 0 1.02 0 0 Z " fill="#071827" transform="translate(81,128)"/>
<path d="M0 0 C0 0.99 0 1.98 0 3 C-0.66 3.66 -1.32 4.32 -2 5 C3.94 5 9.88 5 16 5 C16 5.66 16 6.32 16 7 C8.74 7 1.48 7 -6 7 C-4.11656068 3.23312136 -3.30867531 2.20578354 0 0 Z " fill="#688CA2" transform="translate(58,120)"/>
<path d="M0 0 C0.66 0.33 1.32 0.66 2 1 C-1.12621626 4.39417765 -3.56541027 6.6062718 -8 8 C-8 8.66 -8 9.32 -8 10 C-9.32 9.34 -10.64 8.68 -12 8 C-8.04 5.36 -4.08 2.72 0 0 Z " fill="#294559" transform="translate(75,102)"/>
<path d="M0 0 C0.66 0.33 1.32 0.66 2 1 C2 2.98 2 4.96 2 7 C1.01 7 0.02 7 -1 7 C-3.17032476 8.43990623 -3.17032476 8.43990623 -5 10 C-5.3125 7.8125 -5.3125 7.8125 -5 5 C-2.5 2.1875 -2.5 2.1875 0 0 Z " fill="#0E1F2D" transform="translate(111,108)"/>
<path d="M0 0 C-2.87424607 2.87424607 -6.07530358 4.04172583 -10 5 C-12.50022777 4.96247313 -14.5431541 4.56302718 -17 4 C-17 3.67 -17 3.34 -17 3 C-11.17745757 1.03181664 -6.16618181 -0.40214229 0 0 Z " fill="#223646" transform="translate(158,81)"/>
<path d="M0 0 C0 1.65 0 3.3 0 5 C-0.66 5 -1.32 5 -2 5 C-2.33 5.99 -2.66 6.98 -3 8 C-5.4375 9.125 -5.4375 9.125 -8 10 C-8.99 10.495 -8.99 10.495 -10 11 C-8.59698853 7.81326038 -6.92234929 5.67778594 -4.4375 3.25 C-3.81746094 2.63640625 -3.19742188 2.0228125 -2.55859375 1.390625 C-1 0 -1 0 0 0 Z " fill="#192F41" transform="translate(106,114)"/>
<path d="M0 0 C4.22274294 1.40758098 4.96431683 3.83207287 6.9921875 7.6328125 C8.23075976 10.54201711 8.40077351 12.87396663 8 16 C6.13513805 13.20270707 4.49727525 10.38032298 2.875 7.4375 C2.33617188 6.46683594 1.79734375 5.49617188 1.2421875 4.49609375 C0 2 0 2 0 0 Z " fill="#CEDBE1" transform="translate(105,64)"/>
<path d="M0 0 C0.33 0.99 0.66 1.98 1 3 C-0.65 4.32 -2.3 5.64 -4 7 C-6.475 6.01 -6.475 6.01 -9 5 C-2.40909091 0 -2.40909091 0 0 0 Z " fill="#1E3548" transform="translate(86,97)"/>
<path d="M0 0 C0.33 0.99 0.66 1.98 1 3 C-0.32 3.33 -1.64 3.66 -3 4 C-3 3.34 -3 2.68 -3 2 C-6.3 2.66 -9.6 3.32 -13 4 C-8.87942631 -0.12057369 -5.65607239 -0.16160207 0 0 Z " fill="#BCD1DC" transform="translate(142,81)"/>
<path d="M0 0 C0.7425 0.391875 1.485 0.78375 2.25 1.1875 C-0.44412214 3.88162214 -3.10895642 4.18307418 -6.75 5.1875 C-8.10350594 5.81219505 -9.44934483 6.4591331 -10.75 7.1875 C-4.34036145 -1.28237952 -4.34036145 -1.28237952 0 0 Z " fill="#223C50" transform="translate(91.75,111.8125)"/>
<path d="M0 0 C0.66 0 1.32 0 2 0 C2.86646667 1.43011973 3.71781829 2.86940619 4.5625 4.3125 C5.03816406 5.11300781 5.51382813 5.91351563 6.00390625 6.73828125 C7 9 7 9 6 12 C4.99466333 10.37829621 3.99588093 8.75252763 3 7.125 C2.443125 6.22007813 1.88625 5.31515625 1.3125 4.3828125 C0 2 0 2 0 0 Z " fill="#B0C7D2" transform="translate(132,112)"/>
<path d="M0 0 C0.66 0.33 1.32 0.66 2 1 C2 1.99 2 2.98 2 4 C2.33 4.66 2.66 5.32 3 6 C1.02 7.32 -0.96 8.64 -3 10 C-3.66 9.67 -4.32 9.34 -5 9 C-3.35 6.03 -1.7 3.06 0 0 Z " fill="#80A4B6" transform="translate(63,103)"/>
<path d="M0 0 C0.99 0.33 1.98 0.66 3 1 C2.01 1.33 1.02 1.66 0 2 C0 2.66 0 3.32 0 4 C-2.31 5.32 -4.62 6.64 -7 8 C-6.875 6.25 -6.875 6.25 -6 4 C-3.125 1.6875 -3.125 1.6875 0 0 Z " fill="#07141F" transform="translate(85,118)"/>
<path d="M0 0 C-2.64 1.65 -5.28 3.3 -8 5 C-8.33 4.01 -8.66 3.02 -9 2 C-3.375 -1.125 -3.375 -1.125 0 0 Z " fill="#172C3A" transform="translate(133,94)"/>
<path d="M0 0 C0.6875 1.8125 0.6875 1.8125 1 4 C-0.3125 5.75 -0.3125 5.75 -2 7 C-2.66 7 -3.32 7 -4 7 C-4.33 5.68 -4.66 4.36 -5 3 C-3.35 2.67 -1.7 2.34 0 2 C0 1.34 0 0.68 0 0 Z " fill="#2E4051" transform="translate(116,82)"/>
<path d="M0 0 C0.66 0.33 1.32 0.66 2 1 C2 2.32 2 3.64 2 5 C1.01 5.33 0.02 5.66 -1 6 C-1.66 4.68 -2.32 3.36 -3 2 C-2.01 1.34 -1.02 0.68 0 0 Z " fill="#142539" transform="translate(61,111)"/>
<path d="M0 0 C0 0.66 0 1.32 0 2 C-3.22791555 4.1519437 -4.28400809 4.20086443 -8 4 C-4.5 0 -4.5 0 0 0 Z " fill="#0D2031" transform="translate(98,109)"/>
<path d="M0 0 C1.5 1.375 1.5 1.375 3 3 C3 3.66 3 4.32 3 5 C4.65 4.67 6.3 4.34 8 4 C7.67 4.66 7.34 5.32 7 6 C5.00045254 6.04254356 2.99958364 6.04080783 1 6 C0 5 0 5 -0.0625 2.4375 C-0.041875 1.633125 -0.02125 0.82875 0 0 Z " fill="#253C4E" transform="translate(99,83)"/>
<path d="M0 0 C0.86625 0.3403125 0.86625 0.3403125 1.75 0.6875 C-0.23 1.6775 -0.23 1.6775 -2.25 2.6875 C-2.25 3.3475 -2.25 4.0075 -2.25 4.6875 C-3.57 4.0275 -4.89 3.3675 -6.25 2.6875 C-2.80384615 -0.38942308 -2.80384615 -0.38942308 0 0 Z " fill="#1C3648" transform="translate(69.25,107.3125)"/>
<path d="M0 0 C2.5625 2.25 2.5625 2.25 5 5 C4.8125 7.3125 4.8125 7.3125 4 9 C0 2.25 0 2.25 0 0 Z " fill="#B8CDD9" transform="translate(124,98)"/>
<path d="M0 0 C0.6875 1.6875 0.6875 1.6875 1 4 C-0.3125 6.75 -0.3125 6.75 -2 9 C-2.66 9 -3.32 9 -4 9 C-2.80100302 5.9168649 -1.52299523 2.93720508 0 0 Z " fill="#88A4B4" transform="translate(75,82)"/>
<path d="M0 0 C-0.99 0.495 -0.99 0.495 -2 1 C-2.33 1.99 -2.66 2.98 -3 4 C-3.99 4.33 -4.98 4.66 -6 5 C-6.33 3.68 -6.66 2.36 -7 1 C-4.53721199 -0.231394 -2.7204945 -0.07159196 0 0 Z " fill="#172C3E" transform="translate(114,86)"/>
</svg>
